<svg xmlns="http://www.w3.org/2000/svg" id="btn_enabled_like" width="22" height="22" viewBox="0 0 22 22">
    <path id="Rectangle_59" fill="none" d="M0 0H22V22H0z" data-name="Rectangle 59"/>
    <path id="icon_heart" fill="#acacac" d="M19.781 37.381c0-3.394-2.3-4.111-4.228-4.111-1.8 0-3.83 1.945-4.458 2.7a.8.8 0 0 1-1.186 0c-.628-.75-2.658-2.7-4.458-2.7-1.936 0-4.233.712-4.233 4.111 0 2.213 2.236 4.266 2.259 4.289l7.023 6.769 7.008-6.755c.037-.037 2.273-2.095 2.273-4.303zm1.219.1c0 2.813-2.578 5.166-2.681 5.273l-7.3 7.031a.736.736 0 0 1-1.031 0l-7.316-7.051C2.578 42.65 0 40.3 0 37.484 0 34.053 2.1 32 5.6 32c2.053 0 3.975 1.617 4.9 2.531.928-.914 2.85-2.531 4.9-2.531 3.5 0 5.6 2.053 5.6 5.484z" transform="translate(.5 -30)"/>
</svg>
