<svg xmlns="http://www.w3.org/2000/svg" width="120" height="35.456" viewBox="0 0 120 35.456">
    <defs>
        <linearGradient id="linear-gradient" x1=".915" x2="-.383" y1="1.03" y2=".361" gradientUnits="objectBoundingBox">
            <stop offset="0" stop-color="#00a0ff"/>
            <stop offset=".007" stop-color="#00a1ff"/>
            <stop offset=".26" stop-color="#00beff"/>
            <stop offset=".512" stop-color="#00d2ff"/>
            <stop offset=".76" stop-color="#00dfff"/>
            <stop offset="1" stop-color="#00e3ff"/>
        </linearGradient>
        <linearGradient id="linear-gradient-2" x1="1.076" x2="-1.305" y1=".733" y2=".733" gradientUnits="objectBoundingBox">
            <stop offset="0" stop-color="#ffe000"/>
            <stop offset=".409" stop-color="#ffbd00"/>
            <stop offset=".775" stop-color="orange"/>
            <stop offset="1" stop-color="#ff9c00"/>
        </linearGradient>
        <linearGradient id="linear-gradient-3" x1=".862" x2="-.501" y1="-.023" y2="-1.793" gradientUnits="objectBoundingBox">
            <stop offset="0" stop-color="#ff3a44"/>
            <stop offset="1" stop-color="#c31162"/>
        </linearGradient>
        <linearGradient id="linear-gradient-4" x1="-.188" x2=".421" y1="2.697" y2="1.907" gradientUnits="objectBoundingBox">
            <stop offset="0" stop-color="#32a071"/>
            <stop offset=".068" stop-color="#2da771"/>
            <stop offset=".476" stop-color="#15cf74"/>
            <stop offset=".801" stop-color="#06e775"/>
            <stop offset="1" stop-color="#00f076"/>
        </linearGradient>
        <style>
            .cls-10{fill:#fff}.cls-8{isolation:isolate;opacity:.12}.cls-10{stroke:#fff;stroke-miterlimit:10;stroke-width:.2px}
        </style>
    </defs>
    <g id="Download_on_the_google_play_Badge" transform="translate(-10 -10)">
        <g id="artwork" transform="translate(10 10)">
            <rect id="Rectangle_466" width="120" height="35" data-name="Rectangle 466" rx="5"/>
            <g id="Group_816" data-name="Group 816">
                <g id="Group_815" data-name="Group 815">
                    <path id="Path_105" fill="#a6a6a6" d="M125.232 10.709a3.727 3.727 0 0 1 3.723 3.723v26.592a3.727 3.727 0 0 1-3.723 3.723h-110.8a3.727 3.727 0 0 1-3.723-3.723V14.432a3.727 3.727 0 0 1 3.723-3.723h110.8m0-.709h-110.8A4.445 4.445 0 0 0 10 14.432v26.592a4.445 4.445 0 0 0 4.432 4.432h110.8a4.445 4.445 0 0 0 4.432-4.432V14.432A4.445 4.445 0 0 0 125.232 10z" data-name="Path 105" transform="translate(-10 -10)"/>
                </g>
            </g>
            <path id="Path_106" fill="#fff" d="M72.035 22.323a3.3 3.3 0 1 0 3.307 3.3 3.248 3.248 0 0 0-3.307-3.3zm0 5.293a2 2 0 1 1 1.86-2 1.906 1.906 0 0 1-1.86 2zm-7.216-5.293a3.3 3.3 0 1 0 3.307 3.3 3.248 3.248 0 0 0-3.308-3.3zm0 5.293a2 2 0 1 1 1.86-2 1.906 1.906 0 0 1-1.861 2zm-8.584-4.281v1.4h3.345a2.915 2.915 0 0 1-.761 1.76 3.421 3.421 0 0 1-2.584 1.024 3.72 3.72 0 0 1 0-7.44 3.566 3.566 0 0 1 2.522 1l.986-.986a4.875 4.875 0 0 0-3.507-1.411 5.118 5.118 0 1 0 0 10.235 4.678 4.678 0 0 0 3.57-1.435 5.048 5.048 0 0 0 1.136-4.144zm35.1 1.086a3.064 3.064 0 0 0-2.821-2.1 3.132 3.132 0 0 0-3.108 3.3 3.224 3.224 0 0 0 3.27 3.295 3.278 3.278 0 0 0 2.746-1.46L90.3 26.7a1.882 1.882 0 0 1-1.623.911 1.677 1.677 0 0 1-1.6-1l4.407-1.822zm-4.494 1.1a1.808 1.808 0 0 1 1.727-1.921 1.276 1.276 0 0 1 1.223.7zm-3.583 3.2h1.448v-9.693h-1.443zm-2.371-5.654h-.051a2.281 2.281 0 0 0-1.735-.737 3.3 3.3 0 0 0 0 6.59 2.247 2.247 0 0 0 1.735-.748h.051v.474c0 1.26-.675 1.934-1.76 1.934a1.824 1.824 0 0 1-1.66-1.173l-1.26.524a3.14 3.14 0 0 0 2.921 1.947c1.7 0 3.133-1 3.133-3.433v-5.923h-1.369zm-1.66 4.556a2 2 0 0 1 0-3.994 1.857 1.857 0 0 1 1.76 2.009 1.842 1.842 0 0 1-1.756 1.978zm18.89-8.587h-3.46v9.686H96.1v-3.67h2.018a3.013 3.013 0 1 0 0-6.016zm.037 4.668H96.1v-3.32h2.056a1.66 1.66 0 1 1 0 3.32zm8.935-1.391a2.714 2.714 0 0 0-2.579 1.483l1.284.535a1.37 1.37 0 0 1 1.321-.71 1.392 1.392 0 0 1 1.52 1.246v.1a3.206 3.206 0 0 0-1.508-.373c-1.383 0-2.791.76-2.791 2.181a2.238 2.238 0 0 0 2.4 2.131 2.039 2.039 0 0 0 1.845-.948h.05v.742h1.4v-3.715a2.657 2.657 0 0 0-2.938-2.68zm-.175 5.309c-.473 0-1.134-.237-1.134-.823 0-.747.823-1.034 1.533-1.034a2.574 2.574 0 0 1 1.321.324 1.752 1.752 0 0 1-1.715 1.525zm8.2-5.1l-1.657 4.2h-.05l-1.721-4.2h-1.557l2.579 5.869-1.471 3.265h1.508l3.976-9.134zm-13.021 6.2h1.445v-9.694H102.1z" data-name="Path 106" transform="translate(-14.662 -10.986)"/>
            <g id="Group_818" data-name="Group 818" transform="translate(8.84 6.329)">
                <path id="Path_107" fill="url(#linear-gradient)" d="M20.383 17.53a1.779 1.779 0 0 0-.41 1.245v19.6a1.777 1.777 0 0 0 .41 1.245l.066.064L31.43 28.706v-.259L20.448 17.465z" data-name="Path 107" transform="translate(-19.973 -17.177)"/>
                <path id="Path_108" fill="url(#linear-gradient-2)" d="M36.559 33.307L32.9 29.645v-.259l3.662-3.662.082.048 4.337 2.464a1.346 1.346 0 0 1 0 2.559l-4.337 2.464z" data-name="Path 108" transform="translate(-21.441 -18.116)"/>
                <path id="Path_109" fill="url(#linear-gradient-3)" d="M35.226 33.745L31.482 30 20.435 41.048a1.442 1.442 0 0 0 1.843.054l12.949-7.357" data-name="Path 109" transform="translate(-20.025 -18.601)"/>
                <path id="Path_110" fill="url(#linear-gradient-4)" d="M35.226 24.8l-12.948-7.361a1.442 1.442 0 0 0-1.843.054L31.482 28.54z" data-name="Path 110" transform="translate(-20.025 -17.14)"/>
                <g id="Group_817" data-name="Group 817" transform="translate(0 15.061)">
                    <path id="Path_111" d="M35.144 34.132l-12.866 7.31a1.476 1.476 0 0 1-1.776.01l-.066.066.066.065a1.476 1.476 0 0 0 1.776-.01l12.949-7.357z" data-name="Path 111" transform="translate(-20.025 -34.132)" style="isolation:isolate" opacity="0.2"/>
                    <path id="Path_112" d="M20.383 42.158a1.779 1.779 0 0 1-.41-1.245v.129a1.777 1.777 0 0 0 .41 1.245l.066-.066z" class="cls-8" data-name="Path 112" transform="translate(-19.973 -34.902)"/>
                </g>
                <path id="Path_113" d="M41.449 31.152l-4.42 2.511.082.082 4.337-2.464a1.556 1.556 0 0 0 .93-1.281 1.649 1.649 0 0 1-.929 1.152z" class="cls-8" data-name="Path 113" transform="translate(-21.911 -18.601)"/>
                <path id="Path_114" fill="#fff" d="M22.225 17.568l17.286 9.821a1.649 1.649 0 0 1 .929 1.151 1.554 1.554 0 0 0-.929-1.28l-17.286-9.821c-1.239-.7-2.252-.119-2.252 1.3v.13c0-1.42 1.013-2.005 2.252-1.301z" data-name="Path 114" transform="translate(-19.973 -17.14)" style="isolation:isolate" opacity="0.25"/>
            </g>
        </g>
        <g id="Layer_3" data-name="Layer 3" transform="translate(46.728 33.259)">
            <g id="Group_819" data-name="Group 819">
                <path id="Path_115" d="M51.435 41.684h6.036v.446h-6.036zm5.85-4.079v.439h-5.617V37.6H54.2v-1.353l.592.041c-.006.046-.04.08-.133.092v1.22zm-4.293.806a10.189 10.189 0 0 1 .626 2.807 2.334 2.334 0 0 0-.459.1 10.324 10.324 0 0 0-.592-2.8zm3.508.089a.188.188 0 0 1-.167.093 20.513 20.513 0 0 1-.885 2.908l-.4-.113a20.423 20.423 0 0 0 .8-3.028z" class="cls-10" data-name="Path 115" transform="translate(-51.435 -36.241)"/>
                <path id="Path_116" d="M61.227 40.993a8.112 8.112 0 0 0-.639-.811l.347-.193a8.238 8.238 0 0 1 1.244 1.751l-.372.219a5.443 5.443 0 0 0-.347-.625c-.812.259-1.643.519-2.181.678a.132.132 0 0 1-.087.106l-.2-.526c.14-.034.3-.073.472-.12v-4.8h2.39v3.081H59.89v1.607zm.206-3.9H59.89V38h1.543zM59.89 39.33h1.543v-.93H59.89zm4.991-2.662v4.119c0 .573-.286.586-1.238.586a1.828 1.828 0 0 0-.16-.466c.22.006.425.013.579.013.326 0 .366 0 .366-.14v-3.666h-1.5v5.364h-.452v-5.81z" class="cls-10" data-name="Path 116" transform="translate(-52.293 -36.289)"/>
                <path id="Path_117" d="M72.586 37.257h-2.822l-.073.02v1.159l.033-.04a17.42 17.42 0 0 1 2.489 1.456l-.313.4a16.7 16.7 0 0 0-2.209-1.377v3.613h-.472v-5.23H66.59v-.448h6z" class="cls-10" data-name="Path 117" transform="translate(-53.157 -36.305)"/>
                <path id="Path_118" d="M78.15 38.136a14.036 14.036 0 0 0 .319 2.256 8.031 8.031 0 0 0 .865-1.876l.519.146a.139.139 0 0 1-.141.073 8.122 8.122 0 0 1-1.09 2.209c.219.645.5 1.046.838 1.046.2 0 .28-.339.32-1.173a1.012 1.012 0 0 0 .359.234c-.08 1.057-.239 1.377-.712 1.377s-.852-.406-1.124-1.078a5.316 5.316 0 0 1-1.172 1.078 1.544 1.544 0 0 0-.326-.333 4.805 4.805 0 0 0 .486-.353H75.98v.691h-.406v-.691H74.1v-.359h1.471v-.393H74.4v-1.65h1.178v-.386H74.21v-.347h1.364v-.446l.546.041c-.006.04-.047.073-.133.086v.319h1.4v.347h-1.4v.386H77.2v1.65h-1.22v.393h1.432v.26a5.951 5.951 0 0 0 .725-.785 13.157 13.157 0 0 1-.425-2.722h-3.688v-.386h1.55v-.578h-1.25V36.8h1.251v-.56l.566.033c-.006.047-.04.08-.132.094v.433h1.244v.373h-1.245v.578h1.683c-.027-.484-.047-.991-.047-1.5.446.02.519.027.586.034 0 .053-.04.086-.134.1 0 .466.007.918.027 1.363h1.937v.386zm-3.407 1.485v.406h.857v-.406zm0 .678v.413h.857V40.3zm2.1-.272v-.406h-.885v.406zm0 .685V40.3h-.885v.413zm2.057-4.367a5.122 5.122 0 0 1 .958.92l-.333.259a5.084 5.084 0 0 0-.944-.959z" class="cls-10" data-name="Path 118" transform="translate(-54.001 -36.24)"/>
            </g>
        </g>
    </g>
</svg>
