<svg xmlns="http://www.w3.org/2000/svg" width="14" height="16" viewBox="0 0 14 16">
    <g fill="#4C4948" fill-rule="nonzero">
        <path d="M.34 1.1C.34.504.824.02 1.42.02h11.298c.597 0 1.08.484 1.08 1.08v13.791a1.08 1.08 0 0 1-1.416 1.026l-2.22-.727a.72.72 0 0 0-.49.014l-1.986.788a1.68 1.68 0 0 1-1.232.002l-2.015-.79a.72.72 0 0 0-.489-.014l-2.19.725a1.08 1.08 0 0 1-1.42-1.026V1.1zm.96 0v13.79a.12.12 0 0 0 .158.113l2.19-.724a1.68 1.68 0 0 1 1.142.03l2.014.79a.72.72 0 0 0 .528 0l1.987-.787a1.68 1.68 0 0 1 1.142-.035l2.22.728a.12.12 0 0 0 .157-.114V1.1a.12.12 0 0 0-.12-.12H1.42a.12.12 0 0 0-.12.12z"/>
        <path d="M5.045 4.74a.49.49 0 0 1-.48-.5c0-.276.215-.5.48-.5h5.861a.49.49 0 0 1 .48.5.49.49 0 0 1-.48.5h-5.86zM3.1 4.74a.49.49 0 0 1-.48-.5c0-.276.215-.5.48-.5h.637a.49.49 0 0 1 .48.5.49.49 0 0 1-.48.5H3.1zM3.1 7.92a.49.49 0 0 1-.48-.5c0-.276.215-.5.48-.5h.637a.49.49 0 0 1 .48.5.49.49 0 0 1-.48.5H3.1zM3.1 11.04a.49.49 0 0 1-.48-.5c0-.276.215-.5.48-.5h.637a.49.49 0 0 1 .48.5.49.49 0 0 1-.48.5H3.1zM5.045 7.92a.49.49 0 0 1-.48-.5c0-.276.215-.5.48-.5h5.861a.49.49 0 0 1 .48.5.49.49 0 0 1-.48.5h-5.86zM5.045 11.04a.49.49 0 0 1-.48-.5c0-.276.215-.5.48-.5h5.861a.49.49 0 0 1 .48.5.49.49 0 0 1-.48.5h-5.86z"/>
    </g>
</svg>
