<svg xmlns="http://www.w3.org/2000/svg" id="icon_buy" width="47" height="47" viewBox="0 0 47 47">
    <defs>
        <linearGradient id="linear-gradient" x1=".5" x2=".5" y2="1" gradientUnits="objectBoundingBox">
            <stop offset="0" stop-color="#daf4fa"/>
            <stop offset="1" stop-color="#88bfcc"/>
        </linearGradient>
        <style>
            .cls-3{fill:#fff}
        </style>
    </defs>
    <circle id="Ellipse_4" cx="23.5" cy="23.5" r="23.5" fill="#88bfcc" data-name="Ellipse 4"/>
    <path id="Path_15" fill="url(#linear-gradient)" d="M23.5 23.5H47a23.5 23.5 0 0 1-47 0z" data-name="Path 15" opacity="0.356" transform="rotate(180 23.5 23.5)"/>
    <g id="Group_38" data-name="Group 38" transform="translate(-60.808 -5.915)">
        <path id="Path_22" d="M93.5 15.944a.777.777 0 0 0-.951-.765l-2.213.266a1.056 1.056 0 0 0-1.011.876l-.03-.131.018.218c0 .01-.006.018 0 .03.038.283.223 3.162.233 5.461a8.867 8.867 0 0 1-.344 2.855c.025 0 .042-.01.065-.016-.014.011-.026.039-.042.041a28.909 28.909 0 0 1-11.005 1.328c-.01 0-.023-.021-.035-.027h.032a6.482 6.482 0 0 1-.748-1.688c-.666-2.268-1.419-6.015-1.462-6.348a.473.473 0 0 0-.057-.174l-.012-.068v.035c-.314-.609-1.915-.423-2.485-.355l-.91.11a.762.762 0 0 0-.726.969l2.851 22.012a1.809 1.809 0 0 0 1.34 1.627l.463.083a17.294 17.294 0 0 0 3.4.324 75.311 75.311 0 0 0 8-.407 31.5 31.5 0 0 0 3.445-.543A14.254 14.254 0 0 0 95 40.651c.789-.311 1.276-.638 1.237-.954a2.086 2.086 0 0 0 .187-1.138zm.184 16.377c.524-.063.985.159 1.028.5s-.345.663-.869.726-.985-.159-1.029-.5.35-.662.874-.725zM89.982 28.6a1.255 1.255 0 0 1 1.28 1.192 1.231 1.231 0 0 1-.938 1.462 1.257 1.257 0 0 1-1.28-1.193 1.229 1.229 0 0 1 .938-1.461zm-5.054 3.644c.871-.615 1.876-.686 1.994.226a.789.789 0 0 1-.062.387 2.09 2.09 0 0 1-.564.743c-.047.044-.092.091-.142.132a1.776 1.776 0 0 1-.61.314l.365 2.82c0 .009-.006.015-.006.023a2.391 2.391 0 0 0 1.542-1.147.233.233 0 0 1 .309-.076h.007a.223.223 0 0 1 .084.313 2.825 2.825 0 0 1-1.9 1.372l-.123.017a4.045 4.045 0 0 1-2.647-.818.222.222 0 0 1-.043-.328l.007-.009a.23.23 0 0 1 .306-.038 4.089 4.089 0 0 0 1.8.732l-.36-2.784a1.782 1.782 0 0 1-.672-.16 2.492 2.492 0 0 1-.879-.647.831.831 0 0 1-.189-.394.81.81 0 0 1 .012-.259c.128-.68 1.155-.801 1.771-.419zm-9.352 2.883c-.044-.338.345-.663.869-.726s.986.159 1.029.5-.345.662-.87.726-.984-.163-1.027-.5zm3.962-2.573a1.225 1.225 0 0 1-1.245-1.075 1.2 1.2 0 0 1-.036-.118A1.23 1.23 0 0 1 79.2 29.9a1.257 1.257 0 0 1 1.28 1.193 1.456 1.456 0 0 1-.157.86 1.036 1.036 0 0 1-.784.6z" class="cls-3" data-name="Path 22"/>
        <path id="Path_23" d="M78.024 27.386c-.129.015-.216.179-.192.362s.149.322.28.306.216-.179.192-.362-.149-.322-.28-.306z" class="cls-3" data-name="Path 23" transform="translate(1.399 2.839)"/>
        <path id="Path_24" d="M86.523 27.04c.128-.016.214-.179.191-.362s-.149-.323-.279-.307-.217.179-.192.364.148.321.28.305z" class="cls-3" data-name="Path 24" transform="translate(3.354 2.603)"/>
    </g>
</svg>
