<svg xmlns="http://www.w3.org/2000/svg" id="icon_shopping" width="47" height="47" viewBox="0 0 47 47">
    <defs>
        <linearGradient id="linear-gradient" x1=".5" x2=".5" y2="1" gradientUnits="objectBoundingBox">
            <stop offset="0" stop-color="#f8ddda"/>
            <stop offset="1" stop-color="#eaaea8"/>
        </linearGradient>
    </defs>
    <circle id="Ellipse_4" cx="23.5" cy="23.5" r="23.5" fill="#f4bfba" data-name="Ellipse 4"/>
    <path id="Path_15" fill="url(#linear-gradient)" d="M23.5 23.5H47a23.5 23.5 0 0 1-47 0z" data-name="Path 15" opacity="0.356" transform="rotate(180 23.5 23.5)"/>
    <path id="team" fill="#fff" d="M42.462 44.083c0-1.247-1.459-2.463-3.411-3.109-.09-.03-.651-.283-.3-1.352a5.951 5.951 0 0 0 1.617-3.956 3.307 3.307 0 1 0-6.6 0 5.943 5.943 0 0 0 1.617 3.967c.36.942-.283 1.292-.417 1.341a8.811 8.811 0 0 0-1.319.6v-.86c0-1.247-1.622-2.464-3.575-3.11-.09-.029-.651-.283-.3-1.352a5.952 5.952 0 0 0 1.603-3.952 3.307 3.307 0 1 0-6.6 0 5.941 5.941 0 0 0 1.617 3.967c.36.942-.283 1.292-.417 1.341-1.86.673-3.425 1.9-3.425 3.11v.882a9.055 9.055 0 0 0-1.367-.628c-.134-.049-.776-.4-.418-1.341a5.945 5.945 0 0 0 1.619-3.967 3.307 3.307 0 1 0-6.6 0 5.956 5.956 0 0 0 1.614 3.957c.351 1.069-.212 1.323-.3 1.352-1.952.646-3.41 1.862-3.41 3.109v5.771a.3.3 0 0 0 .007.033c0 .023-.007.046-.007.069 0 3.127 3.532 5.812 8.587 7v-1.746c0-1.427 1.813-2.723 3.611-3.374a.593.593 0 0 0 .286-.285.858.858 0 0 0-.018-.639 6.27 6.27 0 0 1-1.654-4.12 3.588 3.588 0 1 1 7.165 0 6.275 6.275 0 0 1-1.643 4.1c-.194.635-.007.893.14.946 1.736.575 3.765 1.8 3.765 3.376v1.733c5.029-1.192 8.541-3.87 8.541-6.987 0-.023-.007-.046-.007-.069s.007-.021.007-.033v-5.77z" transform="translate(-4.453 -19.791)"/>
</svg>
