<svg xmlns="http://www.w3.org/2000/svg" id="icon_title_shopping" width="26" height="26" viewBox="0 0 26 26">
    <g id="Group_18" data-name="Group 18">
        <path id="Rectangle_12" fill="none" d="M0 0H26V26H0z" data-name="Rectangle 12"/>
        <path id="team" fill="#eaada8" d="M38.618 42.169c0-1.091-1.264-2.155-2.956-2.72-.078-.026-.564-.247-.26-1.183A5.233 5.233 0 0 0 36.8 34.8a2.868 2.868 0 1 0-5.721 0 5.225 5.225 0 0 0 1.4 3.471c.312.824-.245 1.13-.361 1.174a7.6 7.6 0 0 0-1.143.525v-.752c0-1.091-1.406-2.155-3.1-2.72-.078-.026-.564-.248-.26-1.183a5.233 5.233 0 0 0 1.4-3.461 2.867 2.867 0 1 0-5.721 0 5.224 5.224 0 0 0 1.4 3.471c.312.824-.245 1.13-.361 1.173-1.612.589-2.968 1.661-2.968 2.72V40a7.81 7.81 0 0 0-1.184-.55c-.116-.043-.673-.349-.362-1.173a5.227 5.227 0 0 0 1.4-3.471 2.868 2.868 0 1 0-5.721 0 5.237 5.237 0 0 0 1.4 3.461c.3.936-.183 1.157-.26 1.183-1.692.565-2.955 1.629-2.955 2.72v5.048a.263.263 0 0 0 .006.029c0 .02-.006.04-.006.06 0 2.736 3.06 5.085 7.44 6.123V51.9c0-1.248 1.571-2.383 3.129-2.951a.516.516 0 0 0 .248-.25.758.758 0 0 0-.015-.559 5.514 5.514 0 0 1-1.433-3.6 3.11 3.11 0 1 1 6.208 0 5.518 5.518 0 0 1-1.424 3.584c-.168.556-.006.781.122.827 1.5.5 3.263 1.578 3.263 2.954v1.516c4.357-1.043 7.4-3.385 7.4-6.112 0-.02-.006-.04-.006-.06s.006-.018.006-.029v-5.051z" transform="translate(-13.12 -28.053)"/>
    </g>
</svg>
