<svg xmlns="http://www.w3.org/2000/svg" id="icon_vote" width="47" height="47" viewBox="0 0 47 47">
    <defs>
        <linearGradient id="linear-gradient" x1=".5" x2=".5" y2="1" gradientUnits="objectBoundingBox">
            <stop offset="0" stop-color="#f4d0c9"/>
            <stop offset="1" stop-color="#ef8370"/>
        </linearGradient>
    </defs>
    <circle id="Ellipse_4" cx="23.5" cy="23.5" r="23.5" fill="#ef8370" data-name="Ellipse 4"/>
    <path id="Path_15" fill="url(#linear-gradient)" d="M23.5 23.5H47a23.5 23.5 0 0 1-47 0z" data-name="Path 15" opacity="0.356" transform="rotate(180 23.5 23.5)"/>
    <path id="Path_50" fill="#fff" d="M256.653 715.939h-17.622a2.191 2.191 0 0 0-2.189 2.188v21.011a2.191 2.191 0 0 0 2.189 2.189h17.623a2.191 2.191 0 0 0 2.189-2.189v-21.011a2.191 2.191 0 0 0-2.19-2.188zm-11.595 18.271l-2.744 2.6a.7.7 0 0 1-.493.211.63.63 0 0 1-.492-.211l-1.442-1.477a.739.739 0 0 1 0-1.021.7.7 0 0 1 .984.035l.95.985 2.252-2.146a.7.7 0 0 1 .985.035l.04.04a.669.669 0 0 1-.039.948zm0-6.281l-2.744 2.6a.7.7 0 0 1-.493.211.633.633 0 0 1-.492-.211l-1.442-1.478a.738.738 0 0 1 0-1.02.7.7 0 0 1 .984.035l.95.984 2.252-2.146a.7.7 0 0 1 .985.035.407.407 0 0 1 .04.04.669.669 0 0 1-.039.949zm0-6.282l-2.744 2.6a.7.7 0 0 1-.493.211.633.633 0 0 1-.492-.211l-1.442-1.478a.738.738 0 0 1 0-1.02.7.7 0 0 1 .984.034l.95.985 2.252-2.146a.7.7 0 0 1 .985.035.4.4 0 0 1 .04.04.668.668 0 0 1-.039.949zm10.1 14.5h-8.091a.7.7 0 0 1 0-1.408h8.091a.7.7 0 0 1 0 1.408zm0-6.282h-8.091a.7.7 0 1 1 0-1.407h8.091a.7.7 0 0 1 0 1.407zm0-6.281h-8.091a.7.7 0 1 1 0-1.407h8.091a.7.7 0 0 1 0 1.407z" data-name="Path 50" transform="translate(-223.842 -704.939)"/>
</svg>
