<svg xmlns="http://www.w3.org/2000/svg" id="icon_title_food" width="26" height="26" viewBox="0 0 26 26">
    <path id="Rectangle_12" fill="none" d="M0 0H26V26H0z" data-name="Rectangle 12"/>
    <path id="_" fill="#e8ad69" d="M16.1 19.088a3.4 3.4 0 0 0 2.673-1.282 4.6 4.6 0 0 0 1.1-3.106h1.259a4.469 4.469 0 0 0 2.534-.777A5.388 5.388 0 0 0 25.5 11.8a6.549 6.549 0 0 0 .668-2.949A6.532 6.532 0 0 0 25.5 5.9a5.388 5.388 0 0 0-1.827-2.125A4.451 4.451 0 0 0 21.137 3H5.729a.852.852 0 0 0-.668.32 1.15 1.15 0 0 0-.275.777V14.7a4.592 4.592 0 0 0 1.1 3.106 3.4 3.4 0 0 0 2.671 1.282zm3.773-7.313V5.926h1.259a2.269 2.269 0 0 1 1.768.867 3.059 3.059 0 0 1 .746 2.056 3.05 3.05 0 0 1-.746 2.056 2.264 2.264 0 0 1-1.768.869zm3.146 12.547a1.664 1.664 0 0 0 1.139-.457 2.432 2.432 0 0 0 .63-.983 1.921 1.921 0 0 0 .1-1.028c-.065-.3-.216-.457-.452-.457H1.485c-.236 0-.387.154-.452.457a1.921 1.921 0 0 0 .1 1.028 2.432 2.432 0 0 0 .63.983 1.664 1.664 0 0 0 1.139.457z" data-name="" transform="translate(-.61 -.604)"/>
</svg>
