<svg xmlns="http://www.w3.org/2000/svg" id="icon_points" width="47" height="47" viewBox="0 0 47 47">
    <defs>
        <linearGradient id="linear-gradient" x1=".5" x2=".5" y2="1" gradientUnits="objectBoundingBox">
            <stop offset="0" stop-color="#f8ecda"/>
            <stop offset="1" stop-color="#e8ae6a"/>
        </linearGradient>
    </defs>
    <circle id="Ellipse_17" cx="23.5" cy="23.5" r="23.5" fill="#e8ae6a" data-name="Ellipse 17"/>
    <path id="Path_558" fill="url(#linear-gradient)" d="M23.5 23.5H47a23.5 23.5 0 0 1-47 0z" data-name="Path 558" opacity="0.356" transform="rotate(180 23.5 23.5)"/>
    <g id="icon_post_money" transform="translate(-788.018 107.982)">
        <g id="icon_money" transform="translate(797.184 -98.816)">
            <path id="Rectangle_107" fill="none" d="M0 0H29V29H0z" data-name="Rectangle 107" transform="translate(-.165 -.165)"/>
            <path id="icon_money-2" fill="#fff" d="M17.473 27.2H6.442a6.292 6.292 0 0 1-4.555-2.131A6.521 6.521 0 0 1 0 20.822c0-3.281 2.882-7.713 5.739-10.65a2.549 2.549 0 0 1 1.823-.76h9.5a4.687 4.687 0 0 1 1.883.826c2.973 3.312 4.97 7.566 4.97 10.584a6.517 6.517 0 0 1-1.887 4.256 6.3 6.3 0 0 1-4.555 2.122zm-7.307-6.769a.246.246 0 0 0-.2.1l-.456.428a.342.342 0 0 0-.09.253.324.324 0 0 0 .129.234 2.779 2.779 0 0 0 1.706.565h.059v.935a.3.3 0 0 0 .318.311h.635a.312.312 0 0 0 .227-.087.3.3 0 0 0 .09-.225v-.935h.059a2.235 2.235 0 0 0 1.329-.428 1.976 1.976 0 0 0 .545-2.639A2.06 2.06 0 0 0 13.3 18l-2.3-.648a.988.988 0 0 1-.427-.253.663.663 0 0 1-.189-.409.751.751 0 0 1 .179-.633.771.771 0 0 1 .615-.282h1.468a1.512 1.512 0 0 1 .873.272.412.412 0 0 0 .218.058.246.246 0 0 0 .2-.1l.456-.449a.286.286 0 0 0 .089-.234.324.324 0 0 0-.129-.234 2.785 2.785 0 0 0-1.706-.565h-.059v-.935a.3.3 0 0 0-.09-.224.312.312 0 0 0-.227-.088h-.635a.314.314 0 0 0-.228.088.3.3 0 0 0-.09.224v.935h-.04a2.266 2.266 0 0 0-1.349.429 1.957 1.957 0 0 0-.773 1.13 1.937 1.937 0 0 0 .226 1.518 2.06 2.06 0 0 0 1.22.944l2.3.643a.958.958 0 0 1 .427.253.652.652 0 0 1 .189.408.749.749 0 0 1-.179.633.771.771 0 0 1-.615.283h-1.467a1.518 1.518 0 0 1-.873-.273.427.427 0 0 0-.219-.062zM16.74 7.989h-8.9a2.109 2.109 0 0 1-1.587-.726c-.711-.818-1.9-2.366-1.9-3.542 0-1.983 1.3-2.149 2.52-2.149.171 0 .346 0 .5.007h.009c.169 0 .328.007.484.007h.104A2.914 2.914 0 0 0 9.6.721 2.438 2.438 0 0 1 10.883 0a.706.706 0 0 1 .449.165 5.406 5.406 0 0 1 1.2 1.369c.289.434.48.72.871.72a.9.9 0 0 0 .121-.009c.438-.06.568-.372.719-.735.249-.6.56-1.348 2.421-1.348 1.568 0 2.607.327 3.178 1a3.028 3.028 0 0 1 .446 2.557A8.3 8.3 0 0 1 18.3 7.287a2.04 2.04 0 0 1-1.56.702z" data-name="icon_money" transform="translate(1.813 .603)"/>
        </g>
    </g>
</svg>
