<svg xmlns="http://www.w3.org/2000/svg" id="icon_money" width="47" height="47" viewBox="0 0 47 47">
    <defs>
        <linearGradient id="linear-gradient" x1=".5" x2=".5" y2="1" gradientUnits="objectBoundingBox">
            <stop offset="0" stop-color="#d9f0f5"/>
            <stop offset="1" stop-color="#88bfcc"/>
        </linearGradient>
        <style>
            .cls-5{fill:#fff;isolation:isolate;fill-rule:evenodd;opacity:.302}
        </style>
    </defs>
    <g id="Group_28" data-name="Group 28" transform="translate(-40 -431)">
        <circle id="Ellipse_4" cx="23.5" cy="23.5" r="23.5" fill="#88bfcc" data-name="Ellipse 4" transform="translate(40 431)"/>
        <path id="Path_15" fill="url(#linear-gradient)" d="M23.5 23.5H47a23.5 23.5 0 0 1-47 0z" data-name="Path 15" opacity="0.356" transform="rotate(180 43.5 239)"/>
    </g>
    <g id="Group-40" transform="translate(-44.334 .822)">
        <path id="_" fill="#fff" d="M68.628 35.509a.8.8 0 0 0 .828-.828V32.2h.155a5.725 5.725 0 0 0 3.469-1.139 5.314 5.314 0 0 0 1.42-7.021 5.377 5.377 0 0 0-3.183-2.511l-6.006-1.708a2.506 2.506 0 0 1-1.113-.673 1.758 1.758 0 0 1-.492-1.087 2.012 2.012 0 0 1 .466-1.683 1.985 1.985 0 0 1 1.6-.751h3.831a3.889 3.889 0 0 1 2.279.725 1.087 1.087 0 0 0 .569.155.639.639 0 0 0 .518-.259l1.19-1.19a.767.767 0 0 0 .233-.621.872.872 0 0 0-.337-.622 7.152 7.152 0 0 0-4.452-1.5h-.155V9.828a.8.8 0 0 0-.82-.828h-1.657a.8.8 0 0 0-.828.828v2.485h-.1a5.8 5.8 0 0 0-3.52 1.139 5.312 5.312 0 0 0-1.425 7.016 5.379 5.379 0 0 0 3.185 2.511l6.006 1.708a2.513 2.513 0 0 1 1.113.673 1.764 1.764 0 0 1 .492 1.087 2.016 2.016 0 0 1-.466 1.683 1.989 1.989 0 0 1-1.605.751h-3.836a3.882 3.882 0 0 1-2.278-.725 1.09 1.09 0 0 0-.57-.156.637.637 0 0 0-.518.259l-1.19 1.141a.919.919 0 0 0-.233.673.87.87 0 0 0 .336.622 7.154 7.154 0 0 0 4.452 1.5h.156v2.485a.8.8 0 0 0 .828.828z" data-name=""/>
        <path id="_2" fill="#fff" d="M68.628 35.509a.8.8 0 0 0 .828-.828V32.2h.155a5.725 5.725 0 0 0 3.469-1.139 5.314 5.314 0 0 0 1.42-7.021 5.377 5.377 0 0 0-3.183-2.511l-6.006-1.708a2.506 2.506 0 0 1-1.113-.673 1.758 1.758 0 0 1-.492-1.087 2.012 2.012 0 0 1 .466-1.683 1.985 1.985 0 0 1 1.6-.751h3.831a3.889 3.889 0 0 1 2.279.725 1.087 1.087 0 0 0 .569.155.639.639 0 0 0 .518-.259l1.19-1.19a.767.767 0 0 0 .233-.621.872.872 0 0 0-.337-.622 7.152 7.152 0 0 0-4.452-1.5h-.155V9.828a.8.8 0 0 0-.82-.828h-1.657a.8.8 0 0 0-.828.828v2.485h-.1a5.8 5.8 0 0 0-3.52 1.139 5.312 5.312 0 0 0-1.425 7.016 5.379 5.379 0 0 0 3.185 2.511l6.006 1.708a2.513 2.513 0 0 1 1.113.673 1.764 1.764 0 0 1 .492 1.087 2.016 2.016 0 0 1-.466 1.683 1.989 1.989 0 0 1-1.605.751h-3.836a3.882 3.882 0 0 1-2.278-.725 1.09 1.09 0 0 0-.57-.156.637.637 0 0 0-.518.259l-1.19 1.141a.919.919 0 0 0-.233.673.87.87 0 0 0 .336.622 7.154 7.154 0 0 0 4.452 1.5h.156v2.485a.8.8 0 0 0 .828.828z" data-name="" style="isolation:isolate" opacity="0.299"/>
        <path id="Rectangle" d="M65.807 9h.331v3.314h-1.1V9.773A.773.773 0 0 1 65.807 9z" class="cls-5" transform="translate(1.068)"/>
        <path id="Rectangle-2" d="M65.807 31.214h.331V27.9h-1.1v2.54a.773.773 0 0 0 .769.774z" class="cls-5" data-name="Rectangle" transform="translate(1.068 4.295)"/>
    </g>
</svg>
