<svg xmlns="http://www.w3.org/2000/svg" id="icon_title_store" width="26" height="26" viewBox="0 0 26 26">
    <defs>
        <style>
            .cls-2{fill:#eaada8}
        </style>
    </defs>
    <path id="Rectangle_62" fill="none" d="M0 0H26V26H0z" data-name="Rectangle 62"/>
    <path id="Path-25" d="M9.658 2.407a2.161 2.161 0 0 1 2.833-.56 2 2 0 0 1 .51.431l.1.131 6.524 9.3-1.59.941-6.524-9.3a.152.152 0 0 0-.047-.043.169.169 0 0 0-.184.009l-.034.034-6.538 9.3-1.589-.943z" class="cls-2" transform="translate(1.761 .722)"/>
    <path id="Combined-Shape" d="M21.612 6.7A2.319 2.319 0 0 1 24 8.946v6.834a2.319 2.319 0 0 1-2.387 2.245H3.709a2.319 2.319 0 0 1-2.387-2.245V8.946A2.319 2.319 0 0 1 3.709 6.7zM15.9 9.911h-2.387l-.09.007a.555.555 0 0 0-.306.159.488.488 0 0 0-.158.355V14.476a.555.555 0 0 0 .554.555H15.9l.09-.007a.555.555 0 0 0-.09-1.1h-1.762v-.895h.972l.09-.007a.555.555 0 0 0-.09-1.1h-.972v-.895H15.9l.09-.007a.555.555 0 0 0-.09-1.1zm-5.1.04H9.428l-.057.005-.059-.005a.559.559 0 0 0-.59.521v3.969l.008.085a.573.573 0 0 0 .582.437.559.559 0 0 0 .59-.521v-1h.7l.2-.013a1.588 1.588 0 0 0 1.4-1.511v-.787l-.012-.165a1.29 1.29 0 0 0-1.39-1.015zm6.929-.109H17.7a.579.579 0 0 0-.288.068.52.52 0 0 0-.26.321l-.009.043v-.021.025l-.007.061v-.043 4.145l.008.085a.573.573 0 0 0 .582.437.559.559 0 0 0 .59-.521v-2l1.365 2.258.057.077a.58.58 0 0 0 .46.186.559.559 0 0 0 .59-.521v-4.078l-.008-.085a.573.573 0 0 0-.582-.437.559.559 0 0 0-.59.521v2.111l-1.294-2.135-.005-.06a.573.573 0 0 0-.582-.437zm-10.852.069H5.314a.9.9 0 0 0-.924.869v3.234a.9.9 0 0 0 .924.869h1.563a.9.9 0 0 0 .924-.869V10.78a.9.9 0 0 0-.924-.869zm-.185 1.042v2.887H5.5v-2.886zm3.209.039h.9c.22 0 .287.058.287.135v.787l-.014.1a.53.53 0 0 1-.473.38h-.7z" class="cls-2" transform="translate(.423 5.841)"/>
</svg>
