<svg xmlns="http://www.w3.org/2000/svg" id="icon_store" width="47" height="47" viewBox="0 0 47 47">
    <defs>
        <linearGradient id="linear-gradient" x1=".5" x2=".5" y2="1" gradientUnits="objectBoundingBox">
            <stop offset="0" stop-color="#f8ddda"/>
            <stop offset="1" stop-color="#eaaea8"/>
        </linearGradient>
        <style>
            .cls-3{fill:#fff}
        </style>
    </defs>
    <circle id="Ellipse_4" cx="23.5" cy="23.5" r="23.5" fill="#f4bfba" data-name="Ellipse 4"/>
    <path id="Path_15" fill="url(#linear-gradient)" d="M23.5 23.5H47a23.5 23.5 0 0 1-47 0z" data-name="Path 15" opacity="0.356" transform="rotate(180 23.5 23.5)"/>
    <g id="Group_35" data-name="Group 35" transform="translate(-46.339 1.525)">
        <path id="Path_19" d="M65.776 21.237h-1.088v1.788h.848a.648.648 0 0 0 .584-.612v-1c0-.167-.286-.176-.344-.176z" class="cls-3" data-name="Path 19" transform="translate(1.916 3.158)"/>
        <path id="Rectangle_24" d="M.36 0h.71a.359.359 0 0 1 .36.359v2.959a.359.359 0 0 1-.359.359H.36a.36.36 0 0 1-.36-.36V.36A.36.36 0 0 1 .36 0z" class="cls-3" data-name="Rectangle 24" transform="translate(61.344 24.344)"/>
        <path id="Path_20" d="M80.648 18.928h-1.965L72.011 8.574l-.118-.167a2.4 2.4 0 0 0-3.911.165l-6.688 10.356H59.2a2.859 2.859 0 0 0-2.86 2.86v8.7a2.86 2.86 0 0 0 2.86 2.86h21.448a2.861 2.861 0 0 0 2.861-2.86v-8.7a2.86 2.86 0 0 0-2.861-2.86zM69.841 9.773l.039-.044a.185.185 0 0 1 .215-.011.2.2 0 0 1 .055.055l5.9 9.155H63.929zM64.1 27.579a1.772 1.772 0 0 1-1.77 1.77h-.545a1.772 1.772 0 0 1-1.77-1.77v-2.792a1.772 1.772 0 0 1 1.77-1.77h.545a1.772 1.772 0 0 1 1.77 1.77zm5.262-2.009a1.977 1.977 0 0 1-1.912 1.94h-.918v1.277a.664.664 0 1 1-1.328 0v-5.056a.664.664 0 0 1 .664-.664.8.8 0 0 1 .091.018.726.726 0 0 1 .09-.018h1.641a1.537 1.537 0 0 1 1.672 1.5zm3.494 0a.664.664 0 1 1 0 1.328h-1.247v1.227h2.2a.664.664 0 1 1 0 1.328h-2.86a.665.665 0 0 1-.664-.664v-5.108a.663.663 0 0 1 .664-.664H73.8a.663.663 0 1 1 0 1.327h-2.2v1.226zm6.718 3.219a.609.609 0 0 1-.016.082.687.687 0 0 1-.027.133.727.727 0 0 1-.055.112.758.758 0 0 1-.071.106.627.627 0 0 1-.1.087.567.567 0 0 1-.064.057c-.014.007-.028.007-.041.015a.782.782 0 0 1-.095.033.624.624 0 0 1-.15.03c-.015 0-.028.01-.044.01s-.032-.009-.049-.01a.657.657 0 0 1-.154-.032.631.631 0 0 1-.085-.031.622.622 0 0 1-.127-.086.6.6 0 0 1-.069-.057c-.007-.009-.017-.014-.025-.022l-.069-.1-1.719-3.016v2.69a.664.664 0 0 1-1.319.107l-.009-.107v-5.197a.61.61 0 0 1 .016-.082.719.719 0 0 1 .027-.134.647.647 0 0 1 .057-.113.793.793 0 0 1 .069-.1.721.721 0 0 1 .1-.09.635.635 0 0 1 .063-.054c.012-.007.027-.009.039-.015a.824.824 0 0 1 .1-.034.682.682 0 0 1 .148-.03c.016 0 .03-.009.045-.009s.037.009.057.01a.684.684 0 0 1 .122.022.6.6 0 0 1 .1.038.664.664 0 0 1 .1.058.629.629 0 0 1 .087.074.39.39 0 0 1 .042.034l.069.1 1.72 3.017v-2.693a.664.664 0 0 1 1.328 0z" class="cls-3" data-name="Path 20"/>
    </g>
</svg>
