<svg xmlns="http://www.w3.org/2000/svg" id="icon_mail" width="40" height="40" viewBox="0 0 40 40">
    <g id="placeholder" fill="none" stroke="#666">
        <circle cx="20" cy="20" r="20" stroke="none"/>
        <circle cx="20" cy="20" r="19.5"/>
    </g>
    <path id="envelope" fill="#666" stroke="#666" d="M19.757 59.882H2.044A2.046 2.046 0 0 0 0 61.926v12.263a2.046 2.046 0 0 0 2.044 2.044h17.713a2.046 2.046 0 0 0 2.043-2.044V61.926a2.046 2.046 0 0 0-2.043-2.044zm0 1.363a.677.677 0 0 1 .261.053L10.9 69.2l-9.117-7.9a.678.678 0 0 1 .261-.053zm0 13.625H2.044a.682.682 0 0 1-.681-.681V62.737l9.091 7.879a.682.682 0 0 0 .893 0l9.091-7.879v11.452a.682.682 0 0 1-.681.681z" transform="translate(9 -47.882)"/>
</svg>
