<svg xmlns="http://www.w3.org/2000/svg" id="icon_coupon" width="47" height="47" viewBox="0 0 47 47">
    <defs>
        <linearGradient id="linear-gradient" x1=".5" x2=".5" y2="1" gradientUnits="objectBoundingBox">
            <stop offset="0" stop-color="#e3edef"/>
            <stop offset="1" stop-color="#88bfcc"/>
        </linearGradient>
    </defs>
    <circle id="Ellipse_4" cx="23.5" cy="23.5" r="23.5" fill="#88bfcc" data-name="Ellipse 4"/>
    <path id="Path_15" fill="url(#linear-gradient)" d="M23.5 23.5H47a23.5 23.5 0 0 1-47 0z" data-name="Path 15" opacity="0.356" transform="rotate(180 23.5 23.5)"/>
    <path id="Path_18" fill="#fff" d="M77.834 27.064l-2.34-3.341-.654.457c-.8.557-1.892.345-2.7-.8s-.648-2.316.13-2.862l.654-.457-.454-.661-2.017-2.879a1.844 1.844 0 0 0-2.57-.453l-18.709 13.1a1.845 1.845 0 0 0-.447 2.577l2.485 3.513.651-.454c.821-.576 1.9-.335 2.736.853s.669 2.225-.17 2.812l-.652.457 2.338 3.341a1.846 1.846 0 0 0 2.571.453l18.7-13.091a1.846 1.846 0 0 0 .448-2.565zm-13-6.558a.725.725 0 0 1-.4.125.693.693 0 0 1-.4-1.261.677.677 0 0 1 .956.166.706.706 0 0 1-.157.97zm2.009 2.812a.722.722 0 0 1-.4.125.686.686 0 0 1-.568-.291.675.675 0 0 1 .166-.956.692.692 0 0 1 .97.152.718.718 0 0 1-.169.97zm2.009 2.812a.646.646 0 0 1-.4.139.694.694 0 1 1 .568-1.094.678.678 0 0 1-.169.955zm2.007 2.826a.641.641 0 0 1-.386.125.684.684 0 0 1-.568-.291.69.69 0 1 1 1.121-.8.688.688 0 0 1-.168.966zm2.022 2.812a.716.716 0 0 1-.4.123.687.687 0 1 1 .554-1.094.689.689 0 0 1-.155.971z" data-name="Path 18" transform="translate(-39.294 -5.733)"/>
</svg>
