<svg xmlns="http://www.w3.org/2000/svg" width="66.107" height="46.305" viewBox="0 0 66.107 46.305">
    <defs>
        <style>
            .cls-1{fill:#4c4948}.cls-2{fill:#fabf13}
        </style>
    </defs>
    <g id="stayfun_logo" transform="translate(-119.521 -113.074)">
        <path id="Path_5168" d="M133.148 123.5a8.5 8.5 0 0 0-4.987-1.939 6.853 6.853 0 0 1-3.471-1.018 2.158 2.158 0 0 1-.857-1.742 1.8 1.8 0 0 1 .923-1.662 5.3 5.3 0 0 1 2.8-.649 4.763 4.763 0 0 1 2.292.5 5.653 5.653 0 0 1 1.632 1.631 1.862 1.862 0 0 0 2.52.579 1.584 1.584 0 0 0 .736-1.339 2.2 2.2 0 0 0-.385-1.183 8.045 8.045 0 0 0-2.7-2.658 7.674 7.674 0 0 0-3.922-.944 10.6 10.6 0 0 0-3.776.643 6.3 6.3 0 0 0-2.745 1.933 4.815 4.815 0 0 0-1.034 3.077 5.25 5.25 0 0 0 1.975 4.172 9.28 9.28 0 0 0 5.2 1.926 5.271 5.271 0 0 1 3.048 1.088 2.617 2.617 0 0 1 .928 2.02 2.138 2.138 0 0 1-1.061 1.892 5.174 5.174 0 0 1-2.885.766 5.914 5.914 0 0 1-2.689-.612 3.878 3.878 0 0 1-1.2-.88c-.642-.74-.979-1.685-2.133-1.685a1.3 1.3 0 0 0-.366.037 1.967 1.967 0 0 0-1.036.54 1.466 1.466 0 0 0-.428 1.033 1.837 1.837 0 0 0 .168.708 6.486 6.486 0 0 0 2.99 3.117 9.665 9.665 0 0 0 4.7 1.159 10.075 10.075 0 0 0 3.68-.67 6.463 6.463 0 0 0 2.835-2.088 5.435 5.435 0 0 0 1.091-3.392 5.624 5.624 0 0 0-1.843-4.36z" class="cls-1" data-name="Path 5168"/>
        <g id="Group_1080" data-name="Group 1080" transform="translate(136.038 113.101)">
            <path id="Path_5169" d="M166.948 113.624a1.711 1.711 0 0 0-1.254-.5h-13.436a1.709 1.709 0 0 0-1.754 1.754 1.7 1.7 0 0 0 .5 1.254 1.728 1.728 0 0 0 1.254.5h13.435a1.731 1.731 0 0 0 1.254-.5 1.706 1.706 0 0 0 .5-1.254 1.731 1.731 0 0 0-.499-1.254z" class="cls-1" data-name="Path 5169" transform="translate(-150.504 -113.125)"/>
            <path id="Path_5170" d="M162.917 136.47a1.834 1.834 0 0 0 1.855 1.855 1.821 1.821 0 0 0 1.317-.537 1.8 1.8 0 0 0 .537-1.317V122.6h-3.709z" class="cls-1" data-name="Path 5170" transform="translate(-156.3 -117.547)"/>
        </g>
        <path id="Path_5171" d="M189.435 119.328l5.372 13.359a1.753 1.753 0 0 0 .707.852 1.872 1.872 0 0 0 1.008.3 1.819 1.819 0 0 0 1.317-.538 1.767 1.767 0 0 0 .538-1.292 2.133 2.133 0 0 0-.168-.765l-7.074-16.88a1.77 1.77 0 0 0-1.745-1.236 1.8 1.8 0 0 0-1.738 1.215l-7.062 16.866a2.147 2.147 0 0 0-.162.775 1.83 1.83 0 0 0 2.833 1.552 1.952 1.952 0 0 0 .71-.843l1.293-3.174h6.783l-1.305-3.258h-4.15z" class="cls-1" data-name="Path 5171" transform="translate(-28.437 -.024)"/>
        <path id="Path_5172" d="M227.594 113.659a1.57 1.57 0 0 0-1.2-.534 1.84 1.84 0 0 0-1.619.882l-5.512 6.745-5.421-6.655a2.584 2.584 0 0 0-.645-.7 1.662 1.662 0 0 0-.967-.273 1.862 1.862 0 0 0-1.284.493 1.689 1.689 0 0 0-.57 1.286 2.028 2.028 0 0 0 .364 1.1l6.618 8.347v7.628a1.835 1.835 0 0 0 1.83 1.855 1.82 1.82 0 0 0 1.317-.538 1.8 1.8 0 0 0 .537-1.317v-7.628l6.671-8.35a2.088 2.088 0 0 0 .335-1.12 1.781 1.781 0 0 0-.454-1.221z" class="cls-1" data-name="Path 5172" transform="translate(-42.42 -.024)"/>
        <g id="Group_1081" data-name="Group 1081" transform="translate(120.711 138.668)">
            <path id="Path_5173" d="M136.269 164.119a1.658 1.658 0 0 0 .52-1.257 1.741 1.741 0 0 0-.52-1.287 1.819 1.819 0 0 0-1.31-.492h-11.351a1.816 1.816 0 0 0-1.855 1.855v17a1.794 1.794 0 0 0 .537 1.317 1.821 1.821 0 0 0 1.317.538 1.836 1.836 0 0 0 1.855-1.855v-15.345h9.5a1.865 1.865 0 0 0 1.307-.474z" class="cls-1" data-name="Path 5173" transform="translate(-121.753 -161.084)"/>
            <path id="Path_5174" d="M139.528 177.053h-7.99v3.509h7.99a1.879 1.879 0 0 0 1.31-.487 1.807 1.807 0 0 0 0-2.536 1.879 1.879 0 0 0-1.31-.486z" class="cls-1" data-name="Path 5174" transform="translate(-126.322 -168.54)"/>
        </g>
        <g id="Group_1082" data-name="Group 1082" transform="translate(141.045 138.587)">
            <path id="Path_5175" d="M161.916 164.972a2.02 2.02 0 1 0-2.02-2.02 2.023 2.023 0 0 0 2.02 2.02z" class="cls-2" data-name="Path 5175" transform="translate(-159.896 -160.931)"/>
            <path id="Path_5176" d="M194.36 164.972a2.02 2.02 0 1 0-2.02-2.02 2.023 2.023 0 0 0 2.02 2.02z" class="cls-2" data-name="Path 5176" transform="translate(-175.044 -160.931)"/>
            <path id="Path_5177" d="M180.827 173.6a1.93 1.93 0 0 0-3.3 1.4c0 .547.035 1.11.072 1.706.154 2.456.312 5-2.065 6.251a10.977 10.977 0 0 1-9.774 0c-2.372-1.252-2.213-3.791-2.06-6.247.037-.6.072-1.159.072-1.706a1.936 1.936 0 1 0-3.872 0v4.721a7.074 7.074 0 0 0 1.146 3.964 7.653 7.653 0 0 0 3.169 2.7 20.878 20.878 0 0 0 6.354.952h.195a20.843 20.843 0 0 0 6.323-.952 7.651 7.651 0 0 0 3.169-2.7 7.07 7.07 0 0 0 1.146-3.964v-4.735a1.885 1.885 0 0 0-.575-1.39z" class="cls-2" data-name="Path 5177" transform="translate(-159.896 -166.591)"/>
        </g>
        <path id="Path_5178" d="M226.778 161.606a1.775 1.775 0 0 0-1.3-.525 1.813 1.813 0 0 0-1.855 1.855v12.092l-9.988-13.283a2.02 2.02 0 0 0-.619-.468 1.8 1.8 0 0 0-2.628 1.659v17a1.842 1.842 0 1 0 3.684 0l-.094-11.381 9.942 12.579a3.056 3.056 0 0 0 .792.506 2.106 2.106 0 0 0 .765.15 1.775 1.775 0 0 0 1.3-.525 1.808 1.808 0 0 0 .525-1.33v-17a1.809 1.809 0 0 0-.524-1.329z" class="cls-1" data-name="Path 5178" transform="translate(-42.424 -22.412)"/>
    </g>
</svg>
